<svg width="16" height="16" viewBox="0 0 16 16" fill="none" xmlns="http://www.w3.org/2000/svg">
<path d="M2.14614 2.85402C2.09966 2.80753 2.06278 2.75234 2.03762 2.6916C2.01246 2.63087 1.99951 2.56577 1.99951 2.50002C1.99951 2.43428 2.01246 2.36918 2.03762 2.30844C2.06278 2.2477 2.09966 2.19251 2.14614 2.14602C2.19263 2.09953 2.24782 2.06266 2.30856 2.0375C2.3693 2.01234 2.4344 1.99939 2.50014 1.99939C2.56589 1.99939 2.63099 2.01234 2.69173 2.0375C2.75247 2.06266 2.80766 2.09953 2.85414 2.14602L8.00014 7.29302L13.1461 2.14602C13.1926 2.09953 13.2478 2.06266 13.3086 2.0375C13.3693 2.01234 13.4344 1.99939 13.5001 1.99939C13.5659 1.99939 13.631 2.01234 13.6917 2.0375C13.7525 2.06266 13.8077 2.09953 13.8541 2.14602C13.9006 2.19251 13.9375 2.2477 13.9627 2.30844C13.9878 2.36918 14.0008 2.43428 14.0008 2.50002C14.0008 2.56577 13.9878 2.63087 13.9627 2.6916C13.9375 2.75234 13.9006 2.80753 13.8541 2.85402L8.70714 8.00002L13.8541 13.146C13.9006 13.1925 13.9375 13.2477 13.9627 13.3084C13.9878 13.3692 14.0008 13.4343 14.0008 13.5C14.0008 13.5658 13.9878 13.6309 13.9627 13.6916C13.9375 13.7523 13.9006 13.8075 13.8541 13.854C13.8077 13.9005 13.7525 13.9374 13.6917 13.9625C13.631 13.9877 13.5659 14.0007 13.5001 14.0007C13.4344 14.0007 13.3693 13.9877 13.3086 13.9625C13.2478 13.9374 13.1926 13.9005 13.1461 13.854L8.00014 8.70702L2.85414 13.854C2.80766 13.9005 2.75247 13.9374 2.69173 13.9625C2.63099 13.9877 2.56589 14.0007 2.50014 14.0007C2.4344 14.0007 2.3693 13.9877 2.30856 13.9625C2.24782 13.9374 2.19263 13.9005 2.14614 13.854C2.09966 13.8075 2.06278 13.7523 2.03762 13.6916C2.01246 13.6309 1.99951 13.5658 1.99951 13.5C1.99951 13.4343 2.01246 13.3692 2.03762 13.3084C2.06278 13.2477 2.09966 13.1925 2.14614 13.146L7.29314 8.00002L2.14614 2.85402Z" fill="white"/>
</svg>
