<svg width="17" height="17" viewBox="0 0 17 17" fill="none" xmlns="http://www.w3.org/2000/svg">
<g clip-path="url(#clip0_87_17)">
<path d="M8.5 9.5625C9.5269 9.5625 10.3594 8.73003 10.3594 7.70312C10.3594 6.67622 9.5269 5.84375 8.5 5.84375C7.4731 5.84375 6.64062 6.67622 6.64062 7.70312C6.64062 8.73003 7.4731 9.5625 8.5 9.5625Z" fill="white"/>
<path d="M14.8746 6.90584C14.5458 6.90677 14.2253 7.00937 13.9571 7.19959C13.6889 7.38981 13.4861 7.65833 13.3765 7.96834H12.7124C12.5949 7.03237 12.1694 6.16208 11.5029 5.49458C10.8363 4.82708 9.96664 4.40029 9.03084 4.28147V3.62272C9.3853 3.4974 9.68404 3.25081 9.87427 2.92653C10.0645 2.60225 10.134 2.22116 10.0704 1.85061C10.0068 1.48007 9.81429 1.14393 9.52685 0.901601C9.23941 0.659275 8.87555 0.526367 8.49959 0.526367C8.12364 0.526367 7.75978 0.659275 7.47234 0.901601C7.18489 1.14393 6.99237 1.48007 6.9288 1.85061C6.86522 2.22116 6.93469 2.60225 7.12491 2.92653C7.31514 3.25081 7.61389 3.4974 7.96834 3.62272V4.28147C7.03254 4.40029 6.16287 4.82708 5.49633 5.49458C4.82978 6.16208 4.40426 7.03237 4.28678 7.96834H3.62272C3.4974 7.61389 3.25081 7.31514 2.92653 7.12491C2.60225 6.93469 2.22116 6.86522 1.85061 6.9288C1.48007 6.99237 1.14393 7.18489 0.901601 7.47234C0.659275 7.75978 0.526367 8.12364 0.526367 8.49959C0.526367 8.87555 0.659275 9.23941 0.901601 9.52685C1.14393 9.81429 1.48007 10.0068 1.85061 10.0704C2.22116 10.134 2.60225 10.0645 2.92653 9.87427C3.25081 9.68404 3.4974 9.3853 3.62272 9.03084H4.28678C4.34405 9.49279 4.47875 9.94178 4.68522 10.359C4.95931 9.79737 5.35491 9.30378 5.84334 8.91397C5.66756 8.53441 5.5769 8.12101 5.57772 7.70272C5.57957 7.02035 5.81932 6.35998 6.25569 5.83537C6.69206 5.31076 7.29772 4.95474 7.96834 4.82866C8.31952 4.7636 8.67966 4.7636 9.03084 4.82866C9.70147 4.95474 10.3071 5.31076 10.7435 5.83537C11.1799 6.35998 11.4196 7.02035 11.4215 7.70272C11.4223 8.12101 11.3316 8.53441 11.1558 8.91397C11.6443 9.30378 12.0399 9.79737 12.314 10.359C12.5204 9.94178 12.6551 9.49279 12.7124 9.03084H13.3765C13.4739 9.3065 13.6453 9.55003 13.8719 9.73479C14.0985 9.91955 14.3716 10.0384 14.6612 10.0784C14.9509 10.1183 15.2459 10.0779 15.5141 9.96137C15.7822 9.84488 16.0132 9.65687 16.1817 9.41791C16.3501 9.17895 16.4496 8.89825 16.4692 8.60653C16.4888 8.31482 16.4278 8.02333 16.2929 7.76396C16.1579 7.50459 15.9542 7.28735 15.7041 7.13599C15.4539 6.98464 15.167 6.90502 14.8746 6.90584Z" fill="white"/>
<path d="M13.9085 13.7483C13.6753 13.5162 13.376 13.362 13.0516 13.3068C12.7273 13.2517 12.3938 13.2982 12.097 13.4402L10.7476 12.0908C11.0539 11.9033 11.3343 11.6765 11.5817 11.4161C11.4148 10.779 11.0548 10.2093 10.551 9.78516C10.0037 10.3225 9.26739 10.6235 8.50042 10.6235C7.73344 10.6235 6.99711 10.3225 6.44979 9.78516C5.94602 10.2093 5.58598 10.779 5.41917 11.4161C5.67177 11.6817 5.95744 11.9138 6.26917 12.1067L4.93042 13.4455C4.63348 13.3101 4.30282 13.2665 3.98096 13.3205C3.65909 13.3744 3.36071 13.5234 3.12417 13.7483C2.91647 13.9541 2.76941 14.2132 2.6991 14.497C2.62879 14.7809 2.63793 15.0786 2.72552 15.3576C2.81311 15.6366 2.97578 15.8861 3.19572 16.0789C3.41566 16.2716 3.68438 16.4001 3.97247 16.4503C4.26056 16.5005 4.55691 16.4705 4.82908 16.3635C5.10124 16.2566 5.33873 16.0768 5.51554 15.8438C5.69235 15.6109 5.80167 15.3338 5.83152 15.0429C5.86137 14.752 5.81061 14.4585 5.68479 14.1945L7.3051 12.6008C8.09283 12.8417 8.93456 12.8417 9.72229 12.6008L11.3479 14.2317C11.2221 14.4957 11.1713 14.7892 11.2012 15.0801C11.231 15.371 11.3404 15.6481 11.5172 15.881C11.694 16.114 11.9315 16.2937 12.2036 16.4007C12.4758 16.5077 12.7721 16.5377 13.0602 16.4875C13.3483 16.4373 13.6171 16.3088 13.837 16.1161C14.0569 15.9233 14.2196 15.6738 14.3072 15.3948C14.3948 15.1158 14.4039 14.8181 14.3336 14.5342C14.2633 14.2504 14.1162 13.9913 13.9085 13.7855V13.7483Z" fill="white"/>
</g>
<defs>
<clipPath id="clip0_87_17">
<rect width="17" height="17" fill="white"/>
</clipPath>
</defs>
</svg>
